<svg viewBox="0 0 52 52" xmlns="http://www.w3.org/2000/svg" fill="none">
  <g transform="translate(0, 1)">
    <path
      d="M27.7134 10.9818L24.902 13.1387L21.8543 11.3653L21.6706 8.30839L24.482 6.15148L27.5296 7.92489L27.7134 10.9818ZM19.839 5.79775L18.2306 6.99908L16.491 6.01689L16.386 4.27008L17.9944 3.06876L19.734 4.05094L19.839 5.79775ZM32.2892 3.22916L30.6808 4.43049L28.9412 3.4483L28.8361 1.70149L30.4445 0.500168L32.1842 1.48235L32.2892 3.22916ZM20.6003 18.4621L18.9919 19.6634L17.2523 18.6812L17.1473 16.9344L18.7557 15.7331L20.4953 16.7153L20.6003 18.4621ZM34.4635 18.4316L32.8551 19.6329L31.1155 18.6507L31.0105 16.9039L32.6189 15.7026L34.3585 16.6847L34.4635 18.4316ZM35.2071 9.83368L33.5987 11.035L31.8591 10.0528L31.7541 8.30602L33.3625 7.10469L35.1021 8.08688L35.2071 9.83368ZM21.6706 8.30839L19.2866 6.21095ZM31.5702 16.4858L26.29 12.0737ZM31.8066 9.17942L27.6215 9.45335ZM23.1187 12.1015L19.7838 16.3138ZM29.6527 3.8498L26.7738 7.48509Z"
      fill="#EA580C"
    />
    <path
      d="M21.6706 8.30839L21.8543 11.3653L24.902 13.1387L27.7134 10.9818L27.5296 7.92489L24.482 6.15148L21.6706 8.30839ZM21.6706 8.30839L19.2866 6.21095M31.5702 16.4858L26.29 12.0737M31.8066 9.17942L27.6215 9.45335M23.1187 12.1015L19.7838 16.3138M29.6527 3.8498L26.7738 7.48509M19.839 5.79775L18.2306 6.99908L16.491 6.01689L16.386 4.27008L17.9944 3.06876L19.734 4.05094L19.839 5.79775ZM32.2892 3.22916L30.6808 4.43049L28.9412 3.4483L28.8361 1.70149L30.4445 0.500168L32.1842 1.48235L32.2892 3.22916ZM20.6003 18.4621L18.9919 19.6634L17.2523 18.6812L17.1473 16.9344L18.7557 15.7331L20.4953 16.7153L20.6003 18.4621ZM34.4635 18.4316L32.8551 19.6329L31.1155 18.6507L31.0105 16.9039L32.6189 15.7026L34.3585 16.6847L34.4635 18.4316ZM35.2071 9.83368L33.5987 11.035L31.8591 10.0528L31.7541 8.30602L33.3625 7.10469L35.1021 8.08688L35.2071 9.83368Z"
      stroke="#EA580C"
      strokeMiterlimit="10"
      strokeLinecap="round"
      strokeLinejoin="round"
    />
    <path
      d="M45.7763 25.8205L45.7788 38.1615L26.0764 50.0812L6.37389 38.1615L6.37147 26.0245L11.2971 29.1211L11.2995 35.0623L23.6136 42.5109L23.6111 33.3194L26.0933 31.6818L28.5367 33.2982L28.5391 42.5109L40.8532 35.0597L40.8508 28.9145L45.7763 25.8205Z"
      fill="#EA580C"
    />
    <path
      d="M43.5008 15.6464L52 18.8498L31.1602 31.9392L26.0797 28.5828L20.8397 32.0467L0 18.9574L10.3302 15.6464L26.0642 25.961L43.5008 15.6464Z"
      fill="#0F172A"
    />
    <path
      d="M45.7627 38.1523L26.0762 50.0634L6.38867 38.1523L6.38672 26.0527L11.2812 29.1288L11.2842 35.0624V35.0712L11.291 35.0761L23.6055 42.5243L23.6289 42.539V42.5107L23.627 33.328L26.0928 31.7001L28.5215 33.3066L28.5234 42.5107V42.539L28.5469 42.5243L40.8613 35.0732L40.8691 35.0683V35.0595L40.8662 28.9228L45.7607 25.8486L45.7627 38.1523ZM51.9648 18.8525L31.1602 31.9198L26.0879 28.5702L26.0801 28.5644L26.0713 28.5702L20.8398 32.0282L0.0371094 18.9618L10.3271 15.663L26.0557 25.9736L26.0635 25.9794L26.0723 25.9745L43.502 15.663L51.9648 18.8525Z"
      stroke="#0F172A"
      strokeWidth="0.03125"
    />
  </g>
</svg>
